<svg xmlns="http://www.w3.org/2000/svg">

	<symbol id="logo" viewBox="0 0 50 50" fill="none" xmlns="http://www.w3.org/2000/svg">
		<circle cx="25" cy="25" r="25" fill="black"/>
		<path fill-rule="evenodd" clip-rule="evenodd" d="M23.1382 14C22.4933 14 22.0571 14.5621 22.0571 15.1149V32.8767C22.0571 33.4295 22.4933 34 23.1382 34H26.3815C27.0264 34 27.4625 33.4295 27.4625 32.8767V15.1149C27.4625 14.5621 27.0264 14 26.3815 14H23.1382ZM23.6787 15.6216H25.8409V17.7837H23.6787V15.6216ZM16.0811 16.1621C15.4962 16.1621 15 16.6583 15 17.2432V32.9189C15 33.5038 15.4962 33.9999 16.0811 33.9999H19.3243C19.9092 33.9999 20.4054 33.5038 20.4054 32.9189V17.2432C20.4054 16.6583 19.9092 16.1621 19.3243 16.1621H16.0811ZM16.6216 17.7838H18.7837V19.4054H16.6216V17.7838ZM23.6787 19.4054H25.8409V28.5946H23.6787V19.4054ZM16.6216 21.027H18.7837V29.1351H16.6216V21.027ZM23.6787 30.2162H25.8409V32.3783H23.6787V30.2162ZM16.6216 30.7567H18.7837V32.3783H16.6216V30.7567ZM32.1523 30.698L34.2849 30.3414L34.5523 31.9409L32.4197 32.2974L32.1523 30.698ZM32.9478 22.3444L34.0174 28.742L31.8848 29.0986L30.8152 22.7009L32.9478 22.3444ZM30.2805 19.5021L32.4131 19.1455L32.6805 20.7449L30.5479 21.1015L30.2805 19.5021ZM29.4798 17.9918C28.9325 18.0833 28.4876 18.6129 28.5876 19.2114L30.9122 33.1147C31.0122 33.7132 31.6067 34.0775 32.1539 33.986L35.3528 33.4512C35.9001 33.3597 36.3436 32.8218 36.2436 32.2233L33.919 18.32C33.819 17.7215 33.226 17.3655 32.6787 17.457L29.4798 17.9918Z" fill="white"/>
    </symbol>

	<symbol id="search" viewBox="0 0 16 16" fill="none" xmlns="http://www.w3.org/2000/svg">
		<path fill-rule="evenodd" clip-rule="evenodd" d="M7.28179 13.7779C8.8124 13.7779 10.2253 13.2598 11.3556 12.4121L14.1578 15.2143L15.5 13.8721L12.6978 11.0699C13.5455 9.93957 14.0636 8.5267 14.0636 6.99608C14.0636 3.25197 11.0259 0.214294 7.28179 0.214294C3.53768 0.214294 0.5 3.25197 0.5 6.99608C0.5 10.7402 3.53768 13.7779 7.28179 13.7779ZM7.28179 2.09812C9.9898 2.09812 12.1797 4.28808 12.1797 6.99608C12.1797 9.70409 9.9898 11.894 7.28179 11.894C4.57378 11.894 2.38383 9.70409 2.38383 6.99608C2.38383 4.28808 4.57378 2.09812 7.28179 2.09812Z" fill="black"/>
	</symbol>

    <symbol id="logo-wbg" viewBox="0 0 50 50" fill="none" xmlns="http://www.w3.org/2000/svg">
		<circle cx="25" cy="25" r="25" fill="#F9F9FB"/>
		<path fill-rule="evenodd" clip-rule="evenodd" d="M23.5093 14C22.8644 14 22.4282 14.5621 22.4282 15.1149V32.8767C22.4282 33.4295 22.8644 34 23.5093 34H26.7525C27.3975 34 27.8336 33.4295 27.8336 32.8767V15.1149C27.8336 14.5621 27.3975 14 26.7525 14H23.5093ZM24.0498 15.6216H26.212V17.7837H24.0498V15.6216ZM16.4522 16.1621C15.8673 16.1621 15.3711 16.6583 15.3711 17.2432V32.9189C15.3711 33.5038 15.8673 33.9999 16.4522 33.9999H19.6954C20.2803 33.9999 20.7765 33.5038 20.7765 32.9189V17.2432C20.7765 16.6583 20.2803 16.1621 19.6954 16.1621H16.4522ZM16.9927 17.7838H19.1548V19.4054H16.9927V17.7838ZM24.0498 19.4054H26.212V28.5946H24.0498V19.4054ZM16.9927 21.027H19.1548V29.1351H16.9927V21.027ZM24.0498 30.2162H26.212V32.3783H24.0498V30.2162ZM16.9927 30.7567H19.1548V32.3783H16.9927V30.7567ZM32.5234 30.698L34.656 30.3414L34.9234 31.9409L32.7908 32.2974L32.5234 30.698ZM33.3188 22.3444L34.3885 28.742L32.2559 29.0986L31.1863 22.7009L33.3188 22.3444ZM30.6516 19.5021L32.7842 19.1455L33.0516 20.7449L30.919 21.1015L30.6516 19.5021ZM29.8509 17.9918C29.3036 18.0833 28.8587 18.6129 28.9587 19.2114L31.2833 33.1147C31.3833 33.7132 31.9777 34.0775 32.525 33.986L35.7239 33.4512C36.2712 33.3597 36.7147 32.8218 36.6147 32.2233L34.2901 18.32C34.1901 17.7215 33.597 17.3655 33.0497 17.457L29.8509 17.9918Z" fill="black"/>
	</symbol>

	<symbol id="cart" viewBox="0 0 19 20" fill="none" xmlns="http://www.w3.org/2000/svg">
		<path fill-rule="evenodd" clip-rule="evenodd" d="M17.5545 11.3568L4.90606 12.6356C4.56202 12.6699 4.2604 13.0034 4.2604 13.3489C4.2604 13.662 4.51515 13.917 4.82828 13.917H17.4693C17.9404 13.917 18.3216 14.2986 18.3216 14.7691C18.3216 15.2396 17.9404 15.6214 17.4693 15.6214H4.82828C4.81374 15.6214 4.79899 15.621 4.78444 15.6202C3.56667 15.597 2.58061 14.6109 2.55737 13.3931C2.55677 13.3784 2.55636 13.3636 2.55636 13.3491C2.55636 12.758 2.78141 12.1836 3.1903 11.7317C3.59939 11.2798 4.14828 10.9986 4.73657 10.9398L5.14545 10.899L2.48384 1.70424H0.852121C0.381414 1.70424 0 1.32263 0 0.852121C0 0.381616 0.381414 0 0.852121 0H3.12424C3.50364 0 3.83737 0.250909 3.94263 0.615152L4.42242 2.27212H17.4693C17.9404 2.27212 18.3216 2.65354 18.3216 3.12424V10.5089C18.3216 10.9469 17.9897 11.3131 17.5545 11.3568ZM16.6174 3.97636H4.91556L6.8697 10.7267L16.6174 9.73778V3.97636Z" fill="currentColor"/>
		<path d="M2.98223 20C4.00189 20 4.82849 19.1734 4.82849 18.1537C4.82849 17.1341 4.00189 16.3075 2.98223 16.3075C1.96257 16.3075 1.13597 17.1341 1.13597 18.1537C1.13597 19.1734 1.96257 20 2.98223 20Z" fill="currentColor"/>
		<path d="M16.4754 20C17.495 20 18.3216 19.1734 18.3216 18.1537C18.3216 17.1341 17.495 16.3075 16.4754 16.3075C15.4557 16.3075 14.6291 17.1341 14.6291 18.1537C14.6291 19.1734 15.4557 20 16.4754 20Z" fill="currentColor"/>
    </symbol>

	<symbol  id="user" viewBox="0 0 24 24" fill="none" xmlns="http://www.w3.org/2000/svg">
		<path fill-rule="evenodd" clip-rule="evenodd" d="M13.4659 19C13.8847 19 14.2243 18.6593 14.2243 18.2391C14.2243 17.1103 13.8931 16.059 13.323 15.1778C14.0477 14.5265 15.005 14.1304 16.0545 14.1304C18.3163 14.1304 20.1499 15.97 20.1499 18.2391C20.1499 18.6593 20.4894 19 20.9083 19C21.3271 19 21.6667 18.6593 21.6667 18.2391C21.6667 15.1295 19.154 12.6087 16.0545 12.6087C14.6269 12.6087 13.3238 13.1435 12.3333 14.0243C11.3429 13.1435 10.0398 12.6087 8.61213 12.6087C5.51264 12.6087 3 15.1295 3 18.2391C3 18.6593 3.33955 19 3.7584 19C4.17725 19 4.51679 18.6593 4.51679 18.2391C4.51679 15.97 6.35034 14.1304 8.61213 14.1304C9.66164 14.1304 10.6189 14.5265 11.3436 15.1778C10.7735 16.059 10.4424 17.1103 10.4424 18.2391C10.4424 18.6593 10.7819 19 11.2008 19C11.6196 19 11.9592 18.6593 11.9592 18.2391C11.9592 17.6258 12.0932 17.0438 12.3333 16.5211C12.5735 17.0438 12.7075 17.6258 12.7075 18.2391C12.7075 18.6593 13.047 19 13.4659 19ZM8.61213 12C6.68542 12 5.12351 10.433 5.12351 8.5C5.12351 6.567 6.68542 5 8.61213 5C10.5388 5 12.1008 6.567 12.1008 8.5C12.1008 10.433 10.5388 12 8.61213 12ZM8.61213 10.4783C9.70115 10.4783 10.584 9.59256 10.584 8.5C10.584 7.40744 9.70115 6.52174 8.61213 6.52174C7.52312 6.52174 6.6403 7.40744 6.6403 8.5C6.6403 9.59256 7.52312 10.4783 8.61213 10.4783ZM16.0545 10.4783C17.1435 10.4783 18.0264 9.59256 18.0264 8.5C18.0264 7.40744 17.1435 6.52174 16.0545 6.52174C14.9655 6.52174 14.0827 7.40744 14.0827 8.5C14.0827 9.59256 14.9655 10.4783 16.0545 10.4783ZM16.0545 12C14.1278 12 12.5659 10.433 12.5659 8.5C12.5659 6.567 14.1278 5 16.0545 5C17.9812 5 19.5432 6.567 19.5432 8.5C19.5432 10.433 17.9812 12 16.0545 12Z" fill="black"/>
	</symbol>

	<symbol id="like" viewBox="0 0 24 24" fill="none" xmlns="http://www.w3.org/2000/svg">
		<path fill-rule="evenodd" clip-rule="evenodd" d="M12.3639 19L18.4542 13.2819C19.2727 12.4841 19.7333 11.3961 19.7333 10.2608C19.7333 9.12548 19.2727 8.03745 18.4542 7.2397C16.7692 5.60758 14.0778 5.58411 12.3639 7.1866C10.647 5.58714 7.95552 5.61546 6.27355 7.25068C5.45657 8.0499 4.99792 9.13876 5.00001 10.2741C5.0021 11.4094 5.46477 12.4966 6.28468 13.2929L12.3639 19ZM7.31798 8.28518C7.92863 7.68507 8.77925 7.38605 9.63677 7.47005C10.4943 7.55405 11.2688 8.01226 11.748 8.71912L12.3639 9.6346L12.9798 8.71912C13.0884 8.56256 13.2127 8.41718 13.3508 8.28518C14.4778 7.19368 16.2828 7.19368 17.4098 8.28518C17.9448 8.80594 18.2468 9.51599 18.2489 10.2576C18.251 10.9992 17.9529 11.7109 17.4209 12.2346L12.3639 16.9786L7.31798 12.2401C6.78278 11.7176 6.48162 11.0056 6.48162 10.2626C6.48162 9.51968 6.78278 8.80762 7.31798 8.28518Z" fill="black"/>
	</symbol>

    <symbol id="star" viewBox="0 0 17 16" fill="none" xmlns="http://www.w3.org/2000/svg">
      <path fill-rule="evenodd" clip-rule="evenodd" d="M8.38791 0.600098L10.9926 5.6613L16.7758 6.46939L12.5819 10.4035L13.5752 15.9751L8.38791 13.3594L3.20065 15.9751L4.19395 10.4035L0 6.46939L5.80532 5.6613L8.38791 0.600098Z" fill="#EBA430"/>
    </symbol>

    <symbol id="back" viewBox="0 0 16 15" fill="none" xmlns="http://www.w3.org/2000/svg">
		<path fill-rule="evenodd" clip-rule="evenodd" d="M16 8.28185V6.5338H3.37343L8.67118 1.23606L7.43512 0L0.901316 6.5338L0 7.40783L0.901316 8.28185L7.43512 14.8157L8.67118 13.5796L3.37343 8.28185H16Z" fill="black"/>
	</symbol>

</svg>



